 0 
SECTION
 2 
ENTITIES
 0 
POINT
 8 
M
 62 
1
 10 
 3778.594 
 20 
 2885.732 
 30 
0.0
 0 
TEXT
 8 
Ptnum
 62 
 4 
 100 
ACDBTEXT
 10 
 3778.594 
 20 
 2885.732 
 30 
0.0
 40 
 2 
 1 
P01
 7 
宋体
 0 
POINT
 8 
M
 62 
1
 10 
 3773.103 
 20 
 2888.487 
 30 
0.0
 0 
TEXT
 8 
Ptnum
 62 
 4 
 100 
ACDBTEXT
 10 
 3773.103 
 20 
 2888.487 
 30 
0.0
 40 
 2 
 1 
P02
 7 
宋体
 0 
POINT
 8 
M
 62 
1
 10 
 3766.087 
 20 
 2892.923 
 30 
0.0
 0 
TEXT
 8 
Ptnum
 62 
 4 
 100 
ACDBTEXT
 10 
 3766.087 
 20 
 2892.923 
 30 
0.0
 40 
 2 
 1 
P03
 7 
宋体
 0 
POINT
 8 
M
 62 
1
 10 
 3762.06 
 20 
 2898.991 
 30 
0.0
 0 
TEXT
 8 
Ptnum
 62 
 4 
 100 
ACDBTEXT
 10 
 3762.06 
 20 
 2898.991 
 30 
0.0
 40 
 2 
 1 
P04
 7 
宋体
 0 
POINT
 8 
M
 62 
1
 10 
 3759.293 
 20 
 2906.144 
 30 
0.0
 0 
TEXT
 8 
Ptnum
 62 
 4 
 100 
ACDBTEXT
 10 
 3759.293 
 20 
 2906.144 
 30 
0.0
 40 
 2 
 1 
P05
 7 
宋体
 0 
POINT
 8 
M
 62 
1
 10 
 3758.296 
 20 
 2913.009 
 30 
0.0
 0 
TEXT
 8 
Ptnum
 62 
 4 
 100 
ACDBTEXT
 10 
 3758.296 
 20 
 2913.009 
 30 
0.0
 40 
 2 
 1 
P06
 7 
宋体
 0 
POINT
 8 
M
 62 
1
 10 
 3758.338 
 20 
 2918.692 
 30 
0.0
 0 
TEXT
 8 
Ptnum
 62 
 4 
 100 
ACDBTEXT
 10 
 3758.338 
 20 
 2918.692 
 30 
0.0
 40 
 2 
 1 
P07
 7 
宋体
 0 
POINT
 8 
M
 62 
1
 10 
 3760.633 
 20 
 2921.138 
 30 
0.0
 0 
TEXT
 8 
Ptnum
 62 
 4 
 100 
ACDBTEXT
 10 
 3760.633 
 20 
 2921.138 
 30 
0.0
 40 
 2 
 1 
P08
 7 
宋体
 0 
POINT
 8 
M
 62 
1
 10 
 3762.056 
 20 
 2923.66 
 30 
0.0
 0 
TEXT
 8 
Ptnum
 62 
 4 
 100 
ACDBTEXT
 10 
 3762.056 
 20 
 2923.66 
 30 
0.0
 40 
 2 
 1 
P09
 7 
宋体
 0 
POINT
 8 
M
 62 
1
 10 
 3765.44 
 20 
 2925.61 
 30 
0.0
 0 
TEXT
 8 
Ptnum
 62 
 4 
 100 
ACDBTEXT
 10 
 3765.44 
 20 
 2925.61 
 30 
0.0
 40 
 2 
 1 
P10
 7 
宋体
 0 
POINT
 8 
M
 62 
1
 10 
 3770.899 
 20 
 2926.411 
 30 
0.0
 0 
TEXT
 8 
Ptnum
 62 
 4 
 100 
ACDBTEXT
 10 
 3770.899 
 20 
 2926.411 
 30 
0.0
 40 
 2 
 1 
P11
 7 
宋体
 0 
POINT
 8 
M
 62 
1
 10 
 3777.081 
 20 
 2928.302 
 30 
0.0
 0 
TEXT
 8 
Ptnum
 62 
 4 
 100 
ACDBTEXT
 10 
 3777.081 
 20 
 2928.302 
 30 
0.0
 40 
 2 
 1 
P12
 7 
宋体
 0 
POINT
 8 
M
 62 
1
 10 
 3782.205 
 20 
 2927.48 
 30 
0.0
 0 
TEXT
 8 
Ptnum
 62 
 4 
 100 
ACDBTEXT
 10 
 3782.205 
 20 
 2927.48 
 30 
0.0
 40 
 2 
 1 
P13
 7 
宋体
 0 
POINT
 8 
M
 62 
1
 10 
 3784.604 
 20 
 2927.451 
 30 
0.0
 0 
TEXT
 8 
Ptnum
 62 
 4 
 100 
ACDBTEXT
 10 
 3784.604 
 20 
 2927.451 
 30 
0.0
 40 
 2 
 1 
P14
 7 
宋体
 0 
POINT
 8 
M
 62 
1
 10 
 3789.161 
 20 
 2928.771 
 30 
0.0
 0 
TEXT
 8 
Ptnum
 62 
 4 
 100 
ACDBTEXT
 10 
 3789.161 
 20 
 2928.771 
 30 
0.0
 40 
 2 
 1 
P15
 7 
宋体
 0 
POINT
 8 
M
 62 
1
 10 
 3793.153 
 20 
 2929.106 
 30 
0.0
 0 
TEXT
 8 
Ptnum
 62 
 4 
 100 
ACDBTEXT
 10 
 3793.153 
 20 
 2929.106 
 30 
0.0
 40 
 2 
 1 
P16
 7 
宋体
 0 
POINT
 8 
M
 62 
1
 10 
 3797.203 
 20 
 2927.951 
 30 
0.0
 0 
TEXT
 8 
Ptnum
 62 
 4 
 100 
ACDBTEXT
 10 
 3797.203 
 20 
 2927.951 
 30 
0.0
 40 
 2 
 1 
P17
 7 
宋体
 0 
POINT
 8 
M
 62 
1
 10 
 3802.405 
 20 
 2927.305 
 30 
0.0
 0 
TEXT
 8 
Ptnum
 62 
 4 
 100 
ACDBTEXT
 10 
 3802.405 
 20 
 2927.305 
 30 
0.0
 40 
 2 
 1 
P18
 7 
宋体
 0 
POINT
 8 
M
 62 
1
 10 
 3806.864 
 20 
 2928.345 
 30 
0.0
 0 
TEXT
 8 
Ptnum
 62 
 4 
 100 
ACDBTEXT
 10 
 3806.864 
 20 
 2928.345 
 30 
0.0
 40 
 2 
 1 
P19
 7 
宋体
 0 
POINT
 8 
M
 62 
1
 10 
 3810.016 
 20 
 2926.977 
 30 
0.0
 0 
TEXT
 8 
Ptnum
 62 
 4 
 100 
ACDBTEXT
 10 
 3810.016 
 20 
 2926.977 
 30 
0.0
 40 
 2 
 1 
P20
 7 
宋体
 0 
POINT
 8 
M
 62 
1
 10 
 3812.363 
 20 
 2925.532 
 30 
0.0
 0 
TEXT
 8 
Ptnum
 62 
 4 
 100 
ACDBTEXT
 10 
 3812.363 
 20 
 2925.532 
 30 
0.0
 40 
 2 
 1 
P21
 7 
宋体
 0 
POINT
 8 
M
 62 
1
 10 
 3814.905 
 20 
 2925.745 
 30 
0.0
 0 
TEXT
 8 
Ptnum
 62 
 4 
 100 
ACDBTEXT
 10 
 3814.905 
 20 
 2925.745 
 30 
0.0
 40 
 2 
 1 
P22
 7 
宋体
 0 
POINT
 8 
M
 62 
1
 10 
 3818.429 
 20 
 2924.395 
 30 
0.0
 0 
TEXT
 8 
Ptnum
 62 
 4 
 100 
ACDBTEXT
 10 
 3818.429 
 20 
 2924.395 
 30 
0.0
 40 
 2 
 1 
P23
 7 
宋体
 0 
POINT
 8 
M
 62 
1
 10 
 3819.19 
 20 
 2924.484 
 30 
0.0
 0 
TEXT
 8 
Ptnum
 62 
 4 
 100 
ACDBTEXT
 10 
 3819.19 
 20 
 2924.484 
 30 
0.0
 40 
 2 
 1 
P24
 7 
宋体
 0 
POINT
 8 
M
 62 
1
 10 
 3823.03 
 20 
 2923.527 
 30 
0.0
 0 
TEXT
 8 
Ptnum
 62 
 4 
 100 
ACDBTEXT
 10 
 3823.03 
 20 
 2923.527 
 30 
0.0
 40 
 2 
 1 
P25
 7 
宋体
 0 
POINT
 8 
M
 62 
1
 10 
 3829.613 
 20 
 2919.409 
 30 
0.0
 0 
TEXT
 8 
Ptnum
 62 
 4 
 100 
ACDBTEXT
 10 
 3829.613 
 20 
 2919.409 
 30 
0.0
 40 
 2 
 1 
P26
 7 
宋体
 0 
POINT
 8 
M
 62 
1
 10 
 3832.537 
 20 
 2911.361 
 30 
0.0
 0 
TEXT
 8 
Ptnum
 62 
 4 
 100 
ACDBTEXT
 10 
 3832.537 
 20 
 2911.361 
 30 
0.0
 40 
 2 
 1 
P27
 7 
宋体
 0 
POINT
 8 
M
 62 
1
 10 
 3830.895 
 20 
 2907.862 
 30 
0.0
 0 
TEXT
 8 
Ptnum
 62 
 4 
 100 
ACDBTEXT
 10 
 3830.895 
 20 
 2907.862 
 30 
0.0
 40 
 2 
 1 
P28
 7 
宋体
 0 
POINT
 8 
M
 62 
1
 10 
 3827.358 
 20 
 2903.406 
 30 
0.0
 0 
TEXT
 8 
Ptnum
 62 
 4 
 100 
ACDBTEXT
 10 
 3827.358 
 20 
 2903.406 
 30 
0.0
 40 
 2 
 1 
P29
 7 
宋体
 0 
POINT
 8 
M
 62 
1
 10 
 3831.001 
 20 
 2898.301 
 30 
0.0
 0 
TEXT
 8 
Ptnum
 62 
 4 
 100 
ACDBTEXT
 10 
 3831.001 
 20 
 2898.301 
 30 
0.0
 40 
 2 
 1 
P30
 7 
宋体
 0 
POINT
 8 
M
 62 
1
 10 
 3828.766 
 20 
 2892.006 
 30 
0.0
 0 
TEXT
 8 
Ptnum
 62 
 4 
 100 
ACDBTEXT
 10 
 3828.766 
 20 
 2892.006 
 30 
0.0
 40 
 2 
 1 
P31
 7 
宋体
 0 
POINT
 8 
M
 62 
1
 10 
 3822.258 
 20 
 2888.541 
 30 
0.0
 0 
TEXT
 8 
Ptnum
 62 
 4 
 100 
ACDBTEXT
 10 
 3822.258 
 20 
 2888.541 
 30 
0.0
 40 
 2 
 1 
P32
 7 
宋体
 0 
POINT
 8 
M
 62 
1
 10 
 3815.296 
 20 
 2890.342 
 30 
0.0
 0 
TEXT
 8 
Ptnum
 62 
 4 
 100 
ACDBTEXT
 10 
 3815.296 
 20 
 2890.342 
 30 
0.0
 40 
 2 
 1 
P33
 7 
宋体
 0 
POINT
 8 
M
 62 
1
 10 
 3810.832 
 20 
 2890.661 
 30 
0.0
 0 
TEXT
 8 
Ptnum
 62 
 4 
 100 
ACDBTEXT
 10 
 3810.832 
 20 
 2890.661 
 30 
0.0
 40 
 2 
 1 
P34
 7 
宋体
 0 
POINT
 8 
M
 62 
1
 10 
 3802.221 
 20 
 2887.983 
 30 
0.0
 0 
TEXT
 8 
Ptnum
 62 
 4 
 100 
ACDBTEXT
 10 
 3802.221 
 20 
 2887.983 
 30 
0.0
 40 
 2 
 1 
P35
 7 
宋体
 0 
POINT
 8 
M
 62 
1
 10 
 3796.394 
 20 
 2878.61 
 30 
0.0
 0 
TEXT
 8 
Ptnum
 62 
 4 
 100 
ACDBTEXT
 10 
 3796.394 
 20 
 2878.61 
 30 
0.0
 40 
 2 
 1 
P36
 7 
宋体
 0 
POINT
 8 
M
 62 
1
 10 
 3786.659 
 20 
 2876.201 
 30 
0.0
 0 
TEXT
 8 
Ptnum
 62 
 4 
 100 
ACDBTEXT
 10 
 3786.659 
 20 
 2876.201 
 30 
0.0
 40 
 2 
 1 
P37
 7 
宋体
 0 
POINT
 8 
M
 62 
1
 10 
 3777.909 
 20 
 2880.248 
 30 
0.0
 0 
TEXT
 8 
Ptnum
 62 
 4 
 100 
ACDBTEXT
 10 
 3777.909 
 20 
 2880.248 
 30 
0.0
 40 
 2 
 1 
P38
 7 
宋体
 0 
POINT
 8 
M
 62 
1
 10 
 3787.202 
 20 
 2884.628 
 30 
0.0
 0 
TEXT
 8 
Ptnum
 62 
 4 
 100 
ACDBTEXT
 10 
 3787.202 
 20 
 2884.628 
 30 
0.0
 40 
 2 
 1 
P39
 7 
宋体
 0 
POINT
 8 
M
 62 
1
 10 
 3784.449 
 20 
 2893.717 
 30 
0.0
 0 
TEXT
 8 
Ptnum
 62 
 4 
 100 
ACDBTEXT
 10 
 3784.449 
 20 
 2893.717 
 30 
0.0
 40 
 2 
 1 
P40
 7 
宋体
 0 
POINT
 8 
M
 62 
1
 10 
 3817.825 
 20 
 2874.729 
 30 
0.0
 0 
TEXT
 8 
Ptnum
 62 
 4 
 100 
ACDBTEXT
 10 
 3817.825 
 20 
 2874.729 
 30 
0.0
 40 
 2 
 1 
P41
 7 
宋体
 0 
POINT
 8 
M
 62 
1
 10 
 3826.094 
 20 
 2873.631 
 30 
0.0
 0 
TEXT
 8 
Ptnum
 62 
 4 
 100 
ACDBTEXT
 10 
 3826.094 
 20 
 2873.631 
 30 
0.0
 40 
 2 
 1 
P42
 7 
宋体
 0 
POINT
 8 
M
 62 
1
 10 
 3835.38 
 20 
 2870.698 
 30 
0.0
 0 
TEXT
 8 
Ptnum
 62 
 4 
 100 
ACDBTEXT
 10 
 3835.38 
 20 
 2870.698 
 30 
0.0
 40 
 2 
 1 
P43
 7 
宋体
 0 
POINT
 8 
M
 62 
1
 10 
 3836.929 
 20 
 2861.121 
 30 
0.0
 0 
TEXT
 8 
Ptnum
 62 
 4 
 100 
ACDBTEXT
 10 
 3836.929 
 20 
 2861.121 
 30 
0.0
 40 
 2 
 1 
P44
 7 
宋体
 0 
POINT
 8 
M
 62 
1
 10 
 3832.075 
 20 
 2855.926 
 30 
0.0
 0 
TEXT
 8 
Ptnum
 62 
 4 
 100 
ACDBTEXT
 10 
 3832.075 
 20 
 2855.926 
 30 
0.0
 40 
 2 
 1 
P45
 7 
宋体
 0 
POINT
 8 
M
 62 
1
 10 
 3824.011 
 20 
 2857.301 
 30 
0.0
 0 
TEXT
 8 
Ptnum
 62 
 4 
 100 
ACDBTEXT
 10 
 3824.011 
 20 
 2857.301 
 30 
0.0
 40 
 2 
 1 
P46
 7 
宋体
 0 
POINT
 8 
M
 62 
1
 10 
 3814.973 
 20 
 2860.992 
 30 
0.0
 0 
TEXT
 8 
Ptnum
 62 
 4 
 100 
ACDBTEXT
 10 
 3814.973 
 20 
 2860.992 
 30 
0.0
 40 
 2 
 1 
P47
 7 
宋体
 0 
POINT
 8 
M
 62 
1
 10 
 3814.884 
 20 
 2868.448 
 30 
0.0
 0 
TEXT
 8 
Ptnum
 62 
 4 
 100 
ACDBTEXT
 10 
 3814.884 
 20 
 2868.448 
 30 
0.0
 40 
 2 
 1 
P48
 7 
宋体
 0 
POINT
 8 
M
 62 
1
 10 
 3818.132 
 20 
 2872.296 
 30 
0.0
 0 
TEXT
 8 
Ptnum
 62 
 4 
 100 
ACDBTEXT
 10 
 3818.132 
 20 
 2872.296 
 30 
0.0
 40 
 2 
 1 
P49
 7 
宋体
 0 
POINT
 8 
M
 62 
1
 10 
 3828.113 
 20 
 2864.528 
 30 
0.0
 0 
TEXT
 8 
Ptnum
 62 
 4 
 100 
ACDBTEXT
 10 
 3828.113 
 20 
 2864.528 
 30 
0.0
 40 
 2 
 1 
P50
 7 
宋体
 0 
LINE
 8 
Polygon
 62 
1
 10 
 3760.633 
 20 
 2921.138 
 11 
 3758.296 
 21 
 2913.009 
 0 
LINE
 8 
Polygon
 62 
1
 10 
 3760.633 
 20 
 2921.138 
 11 
 3758.338 
 21 
 2918.692 
 0 
LINE
 8 
Polygon
 62 
1
 10 
 3758.338 
 20 
 2918.692 
 11 
 3758.296 
 21 
 2913.009 
 0 
LINE
 8 
Polygon
 62 
1
 10 
 3765.44 
 20 
 2925.61 
 11 
 3760.633 
 21 
 2921.138 
 0 
LINE
 8 
Polygon
 62 
1
 10 
 3765.44 
 20 
 2925.61 
 11 
 3762.056 
 21 
 2923.66 
 0 
LINE
 8 
Polygon
 62 
1
 10 
 3762.056 
 20 
 2923.66 
 11 
 3760.633 
 21 
 2921.138 
 0 
LINE
 8 
Polygon
 62 
1
 10 
 3770.899 
 20 
 2926.411 
 11 
 3760.633 
 21 
 2921.138 
 0 
LINE
 8 
Polygon
 62 
1
 10 
 3770.899 
 20 
 2926.411 
 11 
 3765.44 
 21 
 2925.61 
 0 
LINE
 8 
Polygon
 62 
1
 10 
 3765.44 
 20 
 2925.61 
 11 
 3760.633 
 21 
 2921.138 
 0 
LINE
 8 
Polygon
 62 
1
 10 
 3770.899 
 20 
 2926.411 
 11 
 3760.633 
 21 
 2921.138 
 0 
LINE
 8 
Polygon
 62 
1
 10 
 3770.899 
 20 
 2926.411 
 11 
 3758.296 
 21 
 2913.009 
 0 
LINE
 8 
Polygon
 62 
1
 10 
 3758.296 
 20 
 2913.009 
 11 
 3760.633 
 21 
 2921.138 
 0 
LINE
 8 
Polygon
 62 
1
 10 
 3770.899 
 20 
 2926.411 
 11 
 3759.293 
 21 
 2906.144 
 0 
LINE
 8 
Polygon
 62 
1
 10 
 3770.899 
 20 
 2926.411 
 11 
 3758.296 
 21 
 2913.009 
 0 
LINE
 8 
Polygon
 62 
1
 10 
 3758.296 
 20 
 2913.009 
 11 
 3759.293 
 21 
 2906.144 
 0 
LINE
 8 
Polygon
 62 
1
 10 
 3782.205 
 20 
 2927.48 
 11 
 3770.899 
 21 
 2926.411 
 0 
LINE
 8 
Polygon
 62 
1
 10 
 3782.205 
 20 
 2927.48 
 11 
 3777.081 
 21 
 2928.302 
 0 
LINE
 8 
Polygon
 62 
1
 10 
 3777.081 
 20 
 2928.302 
 11 
 3770.899 
 21 
 2926.411 
 0 
LINE
 8 
Polygon
 62 
1
 10 
 3789.161 
 20 
 2928.771 
 11 
 3782.205 
 21 
 2927.48 
 0 
LINE
 8 
Polygon
 62 
1
 10 
 3789.161 
 20 
 2928.771 
 11 
 3784.604 
 21 
 2927.451 
 0 
LINE
 8 
Polygon
 62 
1
 10 
 3784.604 
 20 
 2927.451 
 11 
 3782.205 
 21 
 2927.48 
 0 
LINE
 8 
Polygon
 62 
1
 10 
 3789.161 
 20 
 2928.771 
 11 
 3782.205 
 21 
 2927.48 
 0 
LINE
 8 
Polygon
 62 
1
 10 
 3789.161 
 20 
 2928.771 
 11 
 3777.081 
 21 
 2928.302 
 0 
LINE
 8 
Polygon
 62 
1
 10 
 3777.081 
 20 
 2928.302 
 11 
 3782.205 
 21 
 2927.48 
 0 
LINE
 8 
Polygon
 62 
1
 10 
 3797.203 
 20 
 2927.951 
 11 
 3789.161 
 21 
 2928.771 
 0 
LINE
 8 
Polygon
 62 
1
 10 
 3797.203 
 20 
 2927.951 
 11 
 3793.153 
 21 
 2929.106 
 0 
LINE
 8 
Polygon
 62 
1
 10 
 3793.153 
 20 
 2929.106 
 11 
 3789.161 
 21 
 2928.771 
 0 
LINE
 8 
Polygon
 62 
1
 10 
 3797.203 
 20 
 2927.951 
 11 
 3789.161 
 21 
 2928.771 
 0 
LINE
 8 
Polygon
 62 
1
 10 
 3797.203 
 20 
 2927.951 
 11 
 3784.604 
 21 
 2927.451 
 0 
LINE
 8 
Polygon
 62 
1
 10 
 3784.604 
 20 
 2927.451 
 11 
 3789.161 
 21 
 2928.771 
 0 
LINE
 8 
Polygon
 62 
1
 10 
 3806.864 
 20 
 2928.345 
 11 
 3797.203 
 21 
 2927.951 
 0 
LINE
 8 
Polygon
 62 
1
 10 
 3806.864 
 20 
 2928.345 
 11 
 3802.405 
 21 
 2927.305 
 0 
LINE
 8 
Polygon
 62 
1
 10 
 3802.405 
 20 
 2927.305 
 11 
 3797.203 
 21 
 2927.951 
 0 
LINE
 8 
Polygon
 62 
1
 10 
 3806.864 
 20 
 2928.345 
 11 
 3797.203 
 21 
 2927.951 
 0 
LINE
 8 
Polygon
 62 
1
 10 
 3806.864 
 20 
 2928.345 
 11 
 3793.153 
 21 
 2929.106 
 0 
LINE
 8 
Polygon
 62 
1
 10 
 3793.153 
 20 
 2929.106 
 11 
 3797.203 
 21 
 2927.951 
 0 
LINE
 8 
Polygon
 62 
1
 10 
 3810.016 
 20 
 2926.977 
 11 
 3802.405 
 21 
 2927.305 
 0 
LINE
 8 
Polygon
 62 
1
 10 
 3810.016 
 20 
 2926.977 
 11 
 3806.864 
 21 
 2928.345 
 0 
LINE
 8 
Polygon
 62 
1
 10 
 3806.864 
 20 
 2928.345 
 11 
 3802.405 
 21 
 2927.305 
 0 
LINE
 8 
Polygon
 62 
1
 10 
 3812.363 
 20 
 2925.532 
 11 
 3802.405 
 21 
 2927.305 
 0 
LINE
 8 
Polygon
 62 
1
 10 
 3812.363 
 20 
 2925.532 
 11 
 3810.016 
 21 
 2926.977 
 0 
LINE
 8 
Polygon
 62 
1
 10 
 3810.016 
 20 
 2926.977 
 11 
 3802.405 
 21 
 2927.305 
 0 
LINE
 8 
Polygon
 62 
1
 10 
 3814.905 
 20 
 2925.745 
 11 
 3806.864 
 21 
 2928.345 
 0 
LINE
 8 
Polygon
 62 
1
 10 
 3814.905 
 20 
 2925.745 
 11 
 3810.016 
 21 
 2926.977 
 0 
LINE
 8 
Polygon
 62 
1
 10 
 3810.016 
 20 
 2926.977 
 11 
 3806.864 
 21 
 2928.345 
 0 
LINE
 8 
Polygon
 62 
1
 10 
 3814.905 
 20 
 2925.745 
 11 
 3810.016 
 21 
 2926.977 
 0 
LINE
 8 
Polygon
 62 
1
 10 
 3814.905 
 20 
 2925.745 
 11 
 3812.363 
 21 
 2925.532 
 0 
LINE
 8 
Polygon
 62 
1
 10 
 3812.363 
 20 
 2925.532 
 11 
 3810.016 
 21 
 2926.977 
 0 
LINE
 8 
Polygon
 62 
1
 10 
 3818.429 
 20 
 2924.395 
 11 
 3812.363 
 21 
 2925.532 
 0 
LINE
 8 
Polygon
 62 
1
 10 
 3818.429 
 20 
 2924.395 
 11 
 3814.905 
 21 
 2925.745 
 0 
LINE
 8 
Polygon
 62 
1
 10 
 3814.905 
 20 
 2925.745 
 11 
 3812.363 
 21 
 2925.532 
 0 
LINE
 8 
Polygon
 62 
1
 10 
 3819.19 
 20 
 2924.484 
 11 
 3814.905 
 21 
 2925.745 
 0 
LINE
 8 
Polygon
 62 
1
 10 
 3819.19 
 20 
 2924.484 
 11 
 3818.429 
 21 
 2924.395 
 0 
LINE
 8 
Polygon
 62 
1
 10 
 3818.429 
 20 
 2924.395 
 11 
 3814.905 
 21 
 2925.745 
 0 
LINE
 8 
Polygon
 62 
1
 10 
 3823.03 
 20 
 2923.527 
 11 
 3818.429 
 21 
 2924.395 
 0 
LINE
 8 
Polygon
 62 
1
 10 
 3823.03 
 20 
 2923.527 
 11 
 3819.19 
 21 
 2924.484 
 0 
LINE
 8 
Polygon
 62 
1
 10 
 3819.19 
 20 
 2924.484 
 11 
 3818.429 
 21 
 2924.395 
 0 
LINE
 8 
Polygon
 62 
1
 10 
 3830.895 
 20 
 2907.862 
 11 
 3829.613 
 21 
 2919.409 
 0 
LINE
 8 
Polygon
 62 
1
 10 
 3830.895 
 20 
 2907.862 
 11 
 3832.537 
 21 
 2911.361 
 0 
LINE
 8 
Polygon
 62 
1
 10 
 3832.537 
 20 
 2911.361 
 11 
 3829.613 
 21 
 2919.409 
 0 
LINE
 8 
Polygon
 62 
1
 10 
 3830.895 
 20 
 2907.862 
 11 
 3829.613 
 21 
 2919.409 
 0 
LINE
 8 
Polygon
 62 
1
 10 
 3830.895 
 20 
 2907.862 
 11 
 3823.03 
 21 
 2923.527 
 0 
LINE
 8 
Polygon
 62 
1
 10 
 3823.03 
 20 
 2923.527 
 11 
 3829.613 
 21 
 2919.409 
 0 
LINE
 8 
Polygon
 62 
1
 10 
 3827.358 
 20 
 2903.406 
 11 
 3812.363 
 21 
 2925.532 
 0 
LINE
 8 
Polygon
 62 
1
 10 
 3827.358 
 20 
 2903.406 
 11 
 3818.429 
 21 
 2924.395 
 0 
LINE
 8 
Polygon
 62 
1
 10 
 3818.429 
 20 
 2924.395 
 11 
 3812.363 
 21 
 2925.532 
 0 
LINE
 8 
Polygon
 62 
1
 10 
 3827.358 
 20 
 2903.406 
 11 
 3823.03 
 21 
 2923.527 
 0 
LINE
 8 
Polygon
 62 
1
 10 
 3827.358 
 20 
 2903.406 
 11 
 3830.895 
 21 
 2907.862 
 0 
LINE
 8 
Polygon
 62 
1
 10 
 3830.895 
 20 
 2907.862 
 11 
 3823.03 
 21 
 2923.527 
 0 
LINE
 8 
Polygon
 62 
1
 10 
 3827.358 
 20 
 2903.406 
 11 
 3823.03 
 21 
 2923.527 
 0 
LINE
 8 
Polygon
 62 
1
 10 
 3827.358 
 20 
 2903.406 
 11 
 3818.429 
 21 
 2924.395 
 0 
LINE
 8 
Polygon
 62 
1
 10 
 3818.429 
 20 
 2924.395 
 11 
 3823.03 
 21 
 2923.527 
 0 
LINE
 8 
Polygon
 62 
1
 10 
 3831.001 
 20 
 2898.301 
 11 
 3832.537 
 21 
 2911.361 
 0 
LINE
 8 
Polygon
 62 
1
 10 
 3831.001 
 20 
 2898.301 
 11 
 3830.895 
 21 
 2907.862 
 0 
LINE
 8 
Polygon
 62 
1
 10 
 3830.895 
 20 
 2907.862 
 11 
 3832.537 
 21 
 2911.361 
 0 
LINE
 8 
Polygon
 62 
1
 10 
 3831.001 
 20 
 2898.301 
 11 
 3830.895 
 21 
 2907.862 
 0 
LINE
 8 
Polygon
 62 
1
 10 
 3831.001 
 20 
 2898.301 
 11 
 3827.358 
 21 
 2903.406 
 0 
LINE
 8 
Polygon
 62 
1
 10 
 3827.358 
 20 
 2903.406 
 11 
 3830.895 
 21 
 2907.862 
 0 
LINE
 8 
Polygon
 62 
1
 10 
 3828.766 
 20 
 2892.006 
 11 
 3827.358 
 21 
 2903.406 
 0 
LINE
 8 
Polygon
 62 
1
 10 
 3828.766 
 20 
 2892.006 
 11 
 3831.001 
 21 
 2898.301 
 0 
LINE
 8 
Polygon
 62 
1
 10 
 3831.001 
 20 
 2898.301 
 11 
 3827.358 
 21 
 2903.406 
 0 
LINE
 8 
Polygon
 62 
1
 10 
 3822.258 
 20 
 2888.541 
 11 
 3827.358 
 21 
 2903.406 
 0 
LINE
 8 
Polygon
 62 
1
 10 
 3822.258 
 20 
 2888.541 
 11 
 3828.766 
 21 
 2892.006 
 0 
LINE
 8 
Polygon
 62 
1
 10 
 3828.766 
 20 
 2892.006 
 11 
 3827.358 
 21 
 2903.406 
 0 
LINE
 8 
Polygon
 62 
1
 10 
 3815.296 
 20 
 2890.342 
 11 
 3827.358 
 21 
 2903.406 
 0 
LINE
 8 
Polygon
 62 
1
 10 
 3815.296 
 20 
 2890.342 
 11 
 3822.258 
 21 
 2888.541 
 0 
LINE
 8 
Polygon
 62 
1
 10 
 3822.258 
 20 
 2888.541 
 11 
 3827.358 
 21 
 2903.406 
 0 
LINE
 8 
Polygon
 62 
1
 10 
 3810.832 
 20 
 2890.661 
 11 
 3827.358 
 21 
 2903.406 
 0 
LINE
 8 
Polygon
 62 
1
 10 
 3810.832 
 20 
 2890.661 
 11 
 3815.296 
 21 
 2890.342 
 0 
LINE
 8 
Polygon
 62 
1
 10 
 3815.296 
 20 
 2890.342 
 11 
 3827.358 
 21 
 2903.406 
 0 
LINE
 8 
Polygon
 62 
1
 10 
 3810.832 
 20 
 2890.661 
 11 
 3812.363 
 21 
 2925.532 
 0 
LINE
 8 
Polygon
 62 
1
 10 
 3810.832 
 20 
 2890.661 
 11 
 3827.358 
 21 
 2903.406 
 0 
LINE
 8 
Polygon
 62 
1
 10 
 3827.358 
 20 
 2903.406 
 11 
 3812.363 
 21 
 2925.532 
 0 
LINE
 8 
Polygon
 62 
1
 10 
 3810.832 
 20 
 2890.661 
 11 
 3812.363 
 21 
 2925.532 
 0 
LINE
 8 
Polygon
 62 
1
 10 
 3810.832 
 20 
 2890.661 
 11 
 3802.405 
 21 
 2927.305 
 0 
LINE
 8 
Polygon
 62 
1
 10 
 3802.405 
 20 
 2927.305 
 11 
 3812.363 
 21 
 2925.532 
 0 
LINE
 8 
Polygon
 62 
1
 10 
 3802.221 
 20 
 2887.983 
 11 
 3802.405 
 21 
 2927.305 
 0 
LINE
 8 
Polygon
 62 
1
 10 
 3802.221 
 20 
 2887.983 
 11 
 3810.832 
 21 
 2890.661 
 0 
LINE
 8 
Polygon
 62 
1
 10 
 3810.832 
 20 
 2890.661 
 11 
 3802.405 
 21 
 2927.305 
 0 
LINE
 8 
Polygon
 62 
1
 10 
 3777.909 
 20 
 2880.248 
 11 
 3778.594 
 21 
 2885.732 
 0 
LINE
 8 
Polygon
 62 
1
 10 
 3777.909 
 20 
 2880.248 
 11 
 3773.103 
 21 
 2888.487 
 0 
LINE
 8 
Polygon
 62 
1
 10 
 3773.103 
 20 
 2888.487 
 11 
 3778.594 
 21 
 2885.732 
 0 
LINE
 8 
Polygon
 62 
1
 10 
 3777.909 
 20 
 2880.248 
 11 
 3773.103 
 21 
 2888.487 
 0 
LINE
 8 
Polygon
 62 
1
 10 
 3777.909 
 20 
 2880.248 
 11 
 3766.087 
 21 
 2892.923 
 0 
LINE
 8 
Polygon
 62 
1
 10 
 3766.087 
 20 
 2892.923 
 11 
 3773.103 
 21 
 2888.487 
 0 
LINE
 8 
Polygon
 62 
1
 10 
 3787.202 
 20 
 2884.628 
 11 
 3802.221 
 21 
 2887.983 
 0 
LINE
 8 
Polygon
 62 
1
 10 
 3787.202 
 20 
 2884.628 
 11 
 3796.394 
 21 
 2878.61 
 0 
LINE
 8 
Polygon
 62 
1
 10 
 3796.394 
 20 
 2878.61 
 11 
 3802.221 
 21 
 2887.983 
 0 
LINE
 8 
Polygon
 62 
1
 10 
 3787.202 
 20 
 2884.628 
 11 
 3796.394 
 21 
 2878.61 
 0 
LINE
 8 
Polygon
 62 
1
 10 
 3787.202 
 20 
 2884.628 
 11 
 3786.659 
 21 
 2876.201 
 0 
LINE
 8 
Polygon
 62 
1
 10 
 3786.659 
 20 
 2876.201 
 11 
 3796.394 
 21 
 2878.61 
 0 
LINE
 8 
Polygon
 62 
1
 10 
 3787.202 
 20 
 2884.628 
 11 
 3778.594 
 21 
 2885.732 
 0 
LINE
 8 
Polygon
 62 
1
 10 
 3787.202 
 20 
 2884.628 
 11 
 3777.909 
 21 
 2880.248 
 0 
LINE
 8 
Polygon
 62 
1
 10 
 3777.909 
 20 
 2880.248 
 11 
 3778.594 
 21 
 2885.732 
 0 
LINE
 8 
Polygon
 62 
1
 10 
 3787.202 
 20 
 2884.628 
 11 
 3786.659 
 21 
 2876.201 
 0 
LINE
 8 
Polygon
 62 
1
 10 
 3787.202 
 20 
 2884.628 
 11 
 3777.909 
 21 
 2880.248 
 0 
LINE
 8 
Polygon
 62 
1
 10 
 3777.909 
 20 
 2880.248 
 11 
 3786.659 
 21 
 2876.201 
 0 
LINE
 8 
Polygon
 62 
1
 10 
 3784.449 
 20 
 2893.717 
 11 
 3766.087 
 21 
 2892.923 
 0 
LINE
 8 
Polygon
 62 
1
 10 
 3784.449 
 20 
 2893.717 
 11 
 3762.06 
 21 
 2898.991 
 0 
LINE
 8 
Polygon
 62 
1
 10 
 3762.06 
 20 
 2898.991 
 11 
 3766.087 
 21 
 2892.923 
 0 
LINE
 8 
Polygon
 62 
1
 10 
 3784.449 
 20 
 2893.717 
 11 
 3766.087 
 21 
 2892.923 
 0 
LINE
 8 
Polygon
 62 
1
 10 
 3784.449 
 20 
 2893.717 
 11 
 3773.103 
 21 
 2888.487 
 0 
LINE
 8 
Polygon
 62 
1
 10 
 3773.103 
 20 
 2888.487 
 11 
 3766.087 
 21 
 2892.923 
 0 
LINE
 8 
Polygon
 62 
1
 10 
 3784.449 
 20 
 2893.717 
 11 
 3759.293 
 21 
 2906.144 
 0 
LINE
 8 
Polygon
 62 
1
 10 
 3784.449 
 20 
 2893.717 
 11 
 3770.899 
 21 
 2926.411 
 0 
LINE
 8 
Polygon
 62 
1
 10 
 3770.899 
 20 
 2926.411 
 11 
 3759.293 
 21 
 2906.144 
 0 
LINE
 8 
Polygon
 62 
1
 10 
 3784.449 
 20 
 2893.717 
 11 
 3762.06 
 21 
 2898.991 
 0 
LINE
 8 
Polygon
 62 
1
 10 
 3784.449 
 20 
 2893.717 
 11 
 3759.293 
 21 
 2906.144 
 0 
LINE
 8 
Polygon
 62 
1
 10 
 3759.293 
 20 
 2906.144 
 11 
 3762.06 
 21 
 2898.991 
 0 
LINE
 8 
Polygon
 62 
1
 10 
 3784.449 
 20 
 2893.717 
 11 
 3770.899 
 21 
 2926.411 
 0 
LINE
 8 
Polygon
 62 
1
 10 
 3784.449 
 20 
 2893.717 
 11 
 3782.205 
 21 
 2927.48 
 0 
LINE
 8 
Polygon
 62 
1
 10 
 3782.205 
 20 
 2927.48 
 11 
 3770.899 
 21 
 2926.411 
 0 
LINE
 8 
Polygon
 62 
1
 10 
 3784.449 
 20 
 2893.717 
 11 
 3782.205 
 21 
 2927.48 
 0 
LINE
 8 
Polygon
 62 
1
 10 
 3784.449 
 20 
 2893.717 
 11 
 3784.604 
 21 
 2927.451 
 0 
LINE
 8 
Polygon
 62 
1
 10 
 3784.604 
 20 
 2927.451 
 11 
 3782.205 
 21 
 2927.48 
 0 
LINE
 8 
Polygon
 62 
1
 10 
 3784.449 
 20 
 2893.717 
 11 
 3773.103 
 21 
 2888.487 
 0 
LINE
 8 
Polygon
 62 
1
 10 
 3784.449 
 20 
 2893.717 
 11 
 3778.594 
 21 
 2885.732 
 0 
LINE
 8 
Polygon
 62 
1
 10 
 3778.594 
 20 
 2885.732 
 11 
 3773.103 
 21 
 2888.487 
 0 
LINE
 8 
Polygon
 62 
1
 10 
 3784.449 
 20 
 2893.717 
 11 
 3797.203 
 21 
 2927.951 
 0 
LINE
 8 
Polygon
 62 
1
 10 
 3784.449 
 20 
 2893.717 
 11 
 3784.604 
 21 
 2927.451 
 0 
LINE
 8 
Polygon
 62 
1
 10 
 3784.604 
 20 
 2927.451 
 11 
 3797.203 
 21 
 2927.951 
 0 
LINE
 8 
Polygon
 62 
1
 10 
 3784.449 
 20 
 2893.717 
 11 
 3802.405 
 21 
 2927.305 
 0 
LINE
 8 
Polygon
 62 
1
 10 
 3784.449 
 20 
 2893.717 
 11 
 3802.221 
 21 
 2887.983 
 0 
LINE
 8 
Polygon
 62 
1
 10 
 3802.221 
 20 
 2887.983 
 11 
 3802.405 
 21 
 2927.305 
 0 
LINE
 8 
Polygon
 62 
1
 10 
 3784.449 
 20 
 2893.717 
 11 
 3802.405 
 21 
 2927.305 
 0 
LINE
 8 
Polygon
 62 
1
 10 
 3784.449 
 20 
 2893.717 
 11 
 3797.203 
 21 
 2927.951 
 0 
LINE
 8 
Polygon
 62 
1
 10 
 3797.203 
 20 
 2927.951 
 11 
 3802.405 
 21 
 2927.305 
 0 
LINE
 8 
Polygon
 62 
1
 10 
 3784.449 
 20 
 2893.717 
 11 
 3802.221 
 21 
 2887.983 
 0 
LINE
 8 
Polygon
 62 
1
 10 
 3784.449 
 20 
 2893.717 
 11 
 3787.202 
 21 
 2884.628 
 0 
LINE
 8 
Polygon
 62 
1
 10 
 3787.202 
 20 
 2884.628 
 11 
 3802.221 
 21 
 2887.983 
 0 
LINE
 8 
Polygon
 62 
1
 10 
 3784.449 
 20 
 2893.717 
 11 
 3778.594 
 21 
 2885.732 
 0 
LINE
 8 
Polygon
 62 
1
 10 
 3784.449 
 20 
 2893.717 
 11 
 3787.202 
 21 
 2884.628 
 0 
LINE
 8 
Polygon
 62 
1
 10 
 3787.202 
 20 
 2884.628 
 11 
 3778.594 
 21 
 2885.732 
 0 
LINE
 8 
Polygon
 62 
1
 10 
 3817.825 
 20 
 2874.729 
 11 
 3822.258 
 21 
 2888.541 
 0 
LINE
 8 
Polygon
 62 
1
 10 
 3817.825 
 20 
 2874.729 
 11 
 3815.296 
 21 
 2890.342 
 0 
LINE
 8 
Polygon
 62 
1
 10 
 3815.296 
 20 
 2890.342 
 11 
 3822.258 
 21 
 2888.541 
 0 
LINE
 8 
Polygon
 62 
1
 10 
 3817.825 
 20 
 2874.729 
 11 
 3802.221 
 21 
 2887.983 
 0 
LINE
 8 
Polygon
 62 
1
 10 
 3817.825 
 20 
 2874.729 
 11 
 3796.394 
 21 
 2878.61 
 0 
LINE
 8 
Polygon
 62 
1
 10 
 3796.394 
 20 
 2878.61 
 11 
 3802.221 
 21 
 2887.983 
 0 
LINE
 8 
Polygon
 62 
1
 10 
 3817.825 
 20 
 2874.729 
 11 
 3802.221 
 21 
 2887.983 
 0 
LINE
 8 
Polygon
 62 
1
 10 
 3817.825 
 20 
 2874.729 
 11 
 3810.832 
 21 
 2890.661 
 0 
LINE
 8 
Polygon
 62 
1
 10 
 3810.832 
 20 
 2890.661 
 11 
 3802.221 
 21 
 2887.983 
 0 
LINE
 8 
Polygon
 62 
1
 10 
 3817.825 
 20 
 2874.729 
 11 
 3815.296 
 21 
 2890.342 
 0 
LINE
 8 
Polygon
 62 
1
 10 
 3817.825 
 20 
 2874.729 
 11 
 3810.832 
 21 
 2890.661 
 0 
LINE
 8 
Polygon
 62 
1
 10 
 3810.832 
 20 
 2890.661 
 11 
 3815.296 
 21 
 2890.342 
 0 
LINE
 8 
Polygon
 62 
1
 10 
 3826.094 
 20 
 2873.631 
 11 
 3822.258 
 21 
 2888.541 
 0 
LINE
 8 
Polygon
 62 
1
 10 
 3826.094 
 20 
 2873.631 
 11 
 3817.825 
 21 
 2874.729 
 0 
LINE
 8 
Polygon
 62 
1
 10 
 3817.825 
 20 
 2874.729 
 11 
 3822.258 
 21 
 2888.541 
 0 
LINE
 8 
Polygon
 62 
1
 10 
 3826.094 
 20 
 2873.631 
 11 
 3822.258 
 21 
 2888.541 
 0 
LINE
 8 
Polygon
 62 
1
 10 
 3826.094 
 20 
 2873.631 
 11 
 3828.766 
 21 
 2892.006 
 0 
LINE
 8 
Polygon
 62 
1
 10 
 3828.766 
 20 
 2892.006 
 11 
 3822.258 
 21 
 2888.541 
 0 
LINE
 8 
Polygon
 62 
1
 10 
 3835.38 
 20 
 2870.698 
 11 
 3832.537 
 21 
 2911.361 
 0 
LINE
 8 
Polygon
 62 
1
 10 
 3835.38 
 20 
 2870.698 
 11 
 3831.001 
 21 
 2898.301 
 0 
LINE
 8 
Polygon
 62 
1
 10 
 3831.001 
 20 
 2898.301 
 11 
 3832.537 
 21 
 2911.361 
 0 
LINE
 8 
Polygon
 62 
1
 10 
 3835.38 
 20 
 2870.698 
 11 
 3831.001 
 21 
 2898.301 
 0 
LINE
 8 
Polygon
 62 
1
 10 
 3835.38 
 20 
 2870.698 
 11 
 3828.766 
 21 
 2892.006 
 0 
LINE
 8 
Polygon
 62 
1
 10 
 3828.766 
 20 
 2892.006 
 11 
 3831.001 
 21 
 2898.301 
 0 
LINE
 8 
Polygon
 62 
1
 10 
 3835.38 
 20 
 2870.698 
 11 
 3828.766 
 21 
 2892.006 
 0 
LINE
 8 
Polygon
 62 
1
 10 
 3835.38 
 20 
 2870.698 
 11 
 3826.094 
 21 
 2873.631 
 0 
LINE
 8 
Polygon
 62 
1
 10 
 3826.094 
 20 
 2873.631 
 11 
 3828.766 
 21 
 2892.006 
 0 
LINE
 8 
Polygon
 62 
1
 10 
 3814.973 
 20 
 2860.992 
 11 
 3786.659 
 21 
 2876.201 
 0 
LINE
 8 
Polygon
 62 
1
 10 
 3814.973 
 20 
 2860.992 
 11 
 3796.394 
 21 
 2878.61 
 0 
LINE
 8 
Polygon
 62 
1
 10 
 3796.394 
 20 
 2878.61 
 11 
 3786.659 
 21 
 2876.201 
 0 
LINE
 8 
Polygon
 62 
1
 10 
 3814.884 
 20 
 2868.448 
 11 
 3796.394 
 21 
 2878.61 
 0 
LINE
 8 
Polygon
 62 
1
 10 
 3814.884 
 20 
 2868.448 
 11 
 3814.973 
 21 
 2860.992 
 0 
LINE
 8 
Polygon
 62 
1
 10 
 3814.973 
 20 
 2860.992 
 11 
 3796.394 
 21 
 2878.61 
 0 
LINE
 8 
Polygon
 62 
1
 10 
 3814.884 
 20 
 2868.448 
 11 
 3817.825 
 21 
 2874.729 
 0 
LINE
 8 
Polygon
 62 
1
 10 
 3814.884 
 20 
 2868.448 
 11 
 3796.394 
 21 
 2878.61 
 0 
LINE
 8 
Polygon
 62 
1
 10 
 3796.394 
 20 
 2878.61 
 11 
 3817.825 
 21 
 2874.729 
 0 
LINE
 8 
Polygon
 62 
1
 10 
 3818.132 
 20 
 2872.296 
 11 
 3817.825 
 21 
 2874.729 
 0 
LINE
 8 
Polygon
 62 
1
 10 
 3818.132 
 20 
 2872.296 
 11 
 3814.884 
 21 
 2868.448 
 0 
LINE
 8 
Polygon
 62 
1
 10 
 3814.884 
 20 
 2868.448 
 11 
 3817.825 
 21 
 2874.729 
 0 
LINE
 8 
Polygon
 62 
1
 10 
 3818.132 
 20 
 2872.296 
 11 
 3826.094 
 21 
 2873.631 
 0 
LINE
 8 
Polygon
 62 
1
 10 
 3818.132 
 20 
 2872.296 
 11 
 3817.825 
 21 
 2874.729 
 0 
LINE
 8 
Polygon
 62 
1
 10 
 3817.825 
 20 
 2874.729 
 11 
 3826.094 
 21 
 2873.631 
 0 
LINE
 8 
Polygon
 62 
1
 10 
 3828.113 
 20 
 2864.528 
 11 
 3836.929 
 21 
 2861.121 
 0 
LINE
 8 
Polygon
 62 
1
 10 
 3828.113 
 20 
 2864.528 
 11 
 3835.38 
 21 
 2870.698 
 0 
LINE
 8 
Polygon
 62 
1
 10 
 3835.38 
 20 
 2870.698 
 11 
 3836.929 
 21 
 2861.121 
 0 
LINE
 8 
Polygon
 62 
1
 10 
 3828.113 
 20 
 2864.528 
 11 
 3826.094 
 21 
 2873.631 
 0 
LINE
 8 
Polygon
 62 
1
 10 
 3828.113 
 20 
 2864.528 
 11 
 3835.38 
 21 
 2870.698 
 0 
LINE
 8 
Polygon
 62 
1
 10 
 3835.38 
 20 
 2870.698 
 11 
 3826.094 
 21 
 2873.631 
 0 
LINE
 8 
Polygon
 62 
1
 10 
 3828.113 
 20 
 2864.528 
 11 
 3832.075 
 21 
 2855.926 
 0 
LINE
 8 
Polygon
 62 
1
 10 
 3828.113 
 20 
 2864.528 
 11 
 3824.011 
 21 
 2857.301 
 0 
LINE
 8 
Polygon
 62 
1
 10 
 3824.011 
 20 
 2857.301 
 11 
 3832.075 
 21 
 2855.926 
 0 
LINE
 8 
Polygon
 62 
1
 10 
 3828.113 
 20 
 2864.528 
 11 
 3832.075 
 21 
 2855.926 
 0 
LINE
 8 
Polygon
 62 
1
 10 
 3828.113 
 20 
 2864.528 
 11 
 3836.929 
 21 
 2861.121 
 0 
LINE
 8 
Polygon
 62 
1
 10 
 3836.929 
 20 
 2861.121 
 11 
 3832.075 
 21 
 2855.926 
 0 
LINE
 8 
Polygon
 62 
1
 10 
 3828.113 
 20 
 2864.528 
 11 
 3814.973 
 21 
 2860.992 
 0 
LINE
 8 
Polygon
 62 
1
 10 
 3828.113 
 20 
 2864.528 
 11 
 3814.884 
 21 
 2868.448 
 0 
LINE
 8 
Polygon
 62 
1
 10 
 3814.884 
 20 
 2868.448 
 11 
 3814.973 
 21 
 2860.992 
 0 
LINE
 8 
Polygon
 62 
1
 10 
 3828.113 
 20 
 2864.528 
 11 
 3814.973 
 21 
 2860.992 
 0 
LINE
 8 
Polygon
 62 
1
 10 
 3828.113 
 20 
 2864.528 
 11 
 3824.011 
 21 
 2857.301 
 0 
LINE
 8 
Polygon
 62 
1
 10 
 3824.011 
 20 
 2857.301 
 11 
 3814.973 
 21 
 2860.992 
 0 
LINE
 8 
Polygon
 62 
1
 10 
 3828.113 
 20 
 2864.528 
 11 
 3814.884 
 21 
 2868.448 
 0 
LINE
 8 
Polygon
 62 
1
 10 
 3828.113 
 20 
 2864.528 
 11 
 3818.132 
 21 
 2872.296 
 0 
LINE
 8 
Polygon
 62 
1
 10 
 3818.132 
 20 
 2872.296 
 11 
 3814.884 
 21 
 2868.448 
 0 
LINE
 8 
Polygon
 62 
1
 10 
 3828.113 
 20 
 2864.528 
 11 
 3826.094 
 21 
 2873.631 
 0 
LINE
 8 
Polygon
 62 
1
 10 
 3828.113 
 20 
 2864.528 
 11 
 3818.132 
 21 
 2872.296 
 0 
LINE
 8 
Polygon
 62 
1
 10 
 3818.132 
 20 
 2872.296 
 11 
 3826.094 
 21 
 2873.631 
 0 
ENDSEC
 0 
EOF
